<svg version="1.1"
	 id="svg2" inkscape:version="0.91 r13725" sodipodi:docname="Constituencies of Jamaica.svg" xmlns:cc="http://creativecommons.org/ns#" xmlns:dc="http://purl.org/dc/elements/1.1/" xmlns:inkscape="http://www.inkscape.org/namespaces/inkscape" xmlns:rdf="http://www.w3.org/1999/02/22-rdf-syntax-ns#" xmlns:sodipodi="http://sodipodi.sourceforge.net/DTD/sodipodi-0.dtd" xmlns:svg="http://www.w3.org/2000/svg"
	 xmlns="http://www.w3.org/2000/svg" xmlns:xlink="http://www.w3.org/1999/xlink" x="0px" y="0px" viewBox="0 0 907.1 436.5"
	 style="enable-background:new 0 0 907.1 436.5;" xml:space="preserve">
<style type="text/css">
	.st0{fill:#DDE8ED;stroke:#646464;stroke-width:1.4;}
</style>
<sodipodi:namedview  bordercolor="#666666" borderopacity="1.0" fit-margin-bottom="0" fit-margin-left="0" fit-margin-right="0" fit-margin-top="0" id="base" inkscape:current-layer="layer1" inkscape:cx="613.35155" inkscape:cy="166.42918" inkscape:document-units="px" inkscape:pageopacity="0.0" inkscape:pageshadow="2" inkscape:window-height="705" inkscape:window-maximized="1" inkscape:window-width="1366" inkscape:window-x="-8" inkscape:window-y="-8" inkscape:zoom="0.49497475" pagecolor="#ffffff" showgrid="false">
	</sodipodi:namedview>
<polygon class="st0" points="516.1,324.2 515.8,324.4 511.4,329.4 511,331.2 509.8,336.6 506.2,343.6 506.6,345.2 509,349.1 
	513.8,350.9 514,351.9 512.9,353.4 512.2,353 512.2,352 507.7,351.3 505.4,350 501.9,353.6 501.1,356 497.7,356.6 496.6,357.5 
	496.3,358.5 496.3,358.8 496.7,360.1 498.6,360.2 499.7,358.8 501.1,358.7 502.1,361.3 500.7,365 500.5,367.8 498,367.2 
	497.1,366.5 496.4,362.9 495.8,361.9 494.3,361.7 490.7,363.6 487.6,366.2 487.1,367.3 488.1,370.8 491.3,370.1 496.3,370.5 
	498,372.1 500.1,374.1 501.5,374.2 504.6,373.2 507.1,374 509.5,372.2 511.6,372.2 512.4,370.7 514.3,371.2 515,372.4 512.7,375.1 
	514.4,378.2 517.3,380.4 519.6,382.1 519.8,384.2 519.3,388.3 513.8,393.5 511.8,394.3 511,394.6 500.1,395.4 497.3,394.7 
	494.4,392.7 489.5,391.4 487.2,389.4 484.9,388.5 480.1,383.4 479.4,382.7 476.9,381.2 473.8,381.1 470,374.9 467.4,370.7 
	465.4,369 459.5,366.7 453.9,361.9 446.8,354.3 446.5,353.9 443.5,349.7 430.5,342 426.1,341.1 425.1,339.7 418.2,335.7 
	417.5,335.3 413.6,333 411.8,332.5 404.3,332.7 390.8,334.9 386.4,337.1 381.6,338.3 378.6,340.6 374.4,341.4 373,340.4 
	370.5,340.7 369.1,338.8 358.3,332.7 352.4,331.2 351.5,331 345.5,331.8 339.3,334 336.5,332.7 334.4,333.1 332.6,332.3 330,333.1 
	325.9,332.6 318.1,334.2 311.5,333.5 303.3,332.7 300.2,333.9 297.2,334 295.2,334 291.4,335.7 288.9,336 287,335.6 287.6,334.3 
	287.3,332.4 283.4,331 279.2,327.1 277.7,324.5 275.7,324.6 273.8,322.4 268.9,320 267.7,317.6 265.6,315.6 265.2,314.5 
	265.7,311.8 265.1,309.3 264.5,308.6 262.4,306 258.3,304.6 255.9,302.2 253.9,301.7 250.5,300.8 251,298.7 249.7,286.1 
	251.7,283.6 252.8,280.9 252.7,277.7 251.8,275.1 249.7,272.5 246.2,269.6 239.9,267.7 237.3,265.4 235.4,264.6 233.9,266.2 
	232.6,266.3 230.7,264.5 229.6,264.2 225.1,264.9 223.5,267.4 215.5,266 211.9,264.4 209.3,260.4 209.3,259.3 207.7,257.3 
	207.3,254.8 206.8,252.3 205.6,251.4 202.7,249.2 200.5,242.2 194.3,235.6 192.7,235.9 191.3,235 188.3,234.3 188.2,233.2 
	187.2,231.9 183.3,230.5 181,229.6 179.5,227.9 179.4,225.8 180.4,224.3 180,222.7 176.9,218.5 178.1,216.3 178,213.6 176.7,209.3 
	172.5,199.8 168.9,196.3 164.6,194.3 159.8,194.1 157.4,194.2 156.3,196.5 155.2,196.6 154.7,194.4 153.3,193 148,193.1 
	137.8,195.9 135.4,194.3 131.9,195.3 130.5,194.8 129.4,193.4 129.4,192.5 125.8,192.4 121,193.4 110.8,196.1 109.4,197.2 
	104.2,199.4 99.8,201 97.7,199.9 95.6,197.4 93.2,196.5 92.4,195.6 90,190.5 88.1,190.5 85.7,189.6 81.4,189.7 74.1,189.9 
	71.8,188.7 65.4,186.9 58.1,183.2 52.5,177.9 50.5,172.3 51.2,170 53,167.5 54.9,165.9 58.6,165.4 59.2,165.3 61.8,160.9 
	61.9,159.7 62.4,147.5 60.7,143.6 62.5,139.1 59.4,136 59.6,134.9 62.2,131.6 64.9,129.9 67.8,130.8 69,133.5 70.1,133.7 
	71.8,133.1 72.4,128.9 74.8,127.3 78.1,120.8 80,120.1 83.7,120.4 85.6,119.6 87.2,121.9 87.8,119.6 87.3,116.6 88.3,114.4 
	90.2,113.6 91.3,112.5 94.8,112.8 95.6,109.3 97.7,108.5 98.5,107.6 98,106.3 98.8,104.9 99.4,103.9 101.3,102.1 103.1,102.1 
	103.9,101.1 105.5,100.5 105.8,98.5 108.4,97 109.3,95.2 112,95.9 113,95.5 114.5,96.5 115.9,96.6 116.9,95.7 121,96.9 123.8,96.1 
	125.9,97.6 126.3,99.2 125.9,101.3 127.1,102.9 130.7,102.6 131.1,100.8 130.4,98.8 131.1,96.8 132.4,94.9 135.3,93.9 142.6,93.6 
	145.4,96.4 147.1,96.7 148,98.3 147.7,100.3 149.3,100.5 150.2,97.8 151,97.7 153,99.5 153.9,99.6 155.5,98.5 159.7,98.5 161.4,98 
	162.8,98.2 163.9,98.3 165.8,97.4 169.8,98.3 172.6,98.3 173.9,97.3 182.9,96.6 186.3,94.6 189,95.2 190.4,95.5 191.9,98.2 
	193.7,99.1 198.6,97.1 206.2,100.5 211.2,100.1 212,101.6 214.3,100.6 214.2,97.9 212.9,95.6 212.7,94.1 213.6,92.1 215.4,91 
	215.9,88.9 214.8,84.5 215.6,82.7 217.3,79.3 218.9,77.6 222.1,76.5 225.7,73.8 229.1,73.3 233.3,71.7 234.5,70.7 241.7,70.3 
	245.8,68.8 256.4,68.6 260.8,69.4 262.8,69.2 274.3,72.5 283,74.1 289.3,75 295.7,75.8 297.7,76.5 298.9,77.5 299.8,79.2 301.7,80 
	303.7,82.4 304.9,82.6 305.8,82.6 308.1,84 310.5,83.9 311.7,82.4 310.9,81.7 307.6,81.2 310.3,80.3 316.4,80.8 318.9,79.7 
	321,79.9 322,80.6 323.1,83.9 326.6,85.8 329.4,85.7 331.1,84.3 330.9,83.6 328.2,82.6 327.7,81.5 331,81 333.4,82.1 337.9,85.1 
	340.4,85.4 342.6,83.6 345.7,83.8 351.9,83.2 354.6,83.5 361,83 364.2,82.7 366.6,85 371.7,86.4 374.2,85.6 376.5,85.8 381.8,87.9 
	389.7,86.7 391.4,86.9 392,87 393.5,87.7 396.1,91.8 397.3,92 398.4,91.4 399.1,89.5 400.5,87.7 402.4,87.7 404.4,88.8 404.6,88.9 
	407.1,90.3 410.9,91.3 411.4,93.6 413.7,95.2 416.8,95 417.3,94.1 416.2,92.4 416.9,92 422.3,92.8 424,91.7 425,91.7 432.6,95.5 
	434.8,95.4 436.4,94.2 446.1,93.6 447.1,93.1 448.8,90.9 450.1,90.6 452.7,92 454.8,92.1 461.3,92.4 471,95.2 473,95.1 474.2,96.1 
	476.8,95.8 478.7,96.3 484.2,97.8 483.7,99.9 484.9,101.2 489.6,101.6 491.7,103.2 496.1,103.7 497.9,102.4 499.2,103.3 
	499.6,103.5 502.3,103.2 503.8,103.9 507.5,108.5 515.6,112.2 519.7,112.8 521.3,114.6 523.6,115.2 525.9,116.6 527.8,116.8 
	531.6,114.8 537,115.2 538.3,114.1 539.5,113.9 540.1,113.8 541.1,112.5 543.2,112.6 546.7,112 547.4,111 550.1,110.2 552,111.3 
	559.7,112.1 561.2,115.6 562,116.3 563.2,116.2 565.5,115.1 567.2,114.9 574.8,117.8 579.6,116.7 584.7,120 586.5,119.8 
	588.9,115.3 591.3,113.9 597.2,113.8 600.6,114.7 601.8,115 606.7,114.4 607.8,114.9 609.6,116.5 610.1,118.5 607.8,123.5 
	607.6,126.4 608.9,128.7 609.4,130.9 611.5,131.9 615.8,131.4 616.3,132.2 616.9,133.3 620.5,134.6 622.6,137.5 626.4,140.6 
	628,140.9 633.3,144.8 635.4,145.7 640.8,146.6 642.1,149.9 639.9,153.9 640.4,155.3 643.5,157.8 645.6,161.5 646.2,164.2 
	646.3,164.7 649.2,168 650.8,170.1 657.1,169.5 660.1,169 663.8,167.5 665,167.6 668.5,170.7 670.4,172.3 675.8,172.8 678.6,171.4 
	679.3,171.5 688.2,173.7 689.7,174.5 693.7,178.7 697.1,184.1 699.6,184.7 702.7,187.7 709.5,188.4 714.9,187.9 715,187.8 
	720.3,185.9 722.4,187 725.2,189.8 730.7,197.3 738.6,199.3 741.9,197.3 743,197.3 748,201 749.8,200.7 752.9,198.2 755.2,198.4 
	756.3,196.7 757.8,195.9 763.8,196.4 765.8,197.9 767,201.5 768.5,202.7 768.5,202.7 769.6,204.8 771.9,206.7 774,207 776.1,206.2 
	778.4,208.2 779.2,207.1 779.4,204.8 780,204.4 787.2,206.9 787.3,209.2 792.1,207.4 792.7,209.7 796,209 797,208.1 797.9,208.3 
	798.3,210 798.3,210.3 800,210.7 800.2,210.8 800.6,210 803.2,210.2 804.4,211.5 807.2,211.6 809.6,213.4 811.1,216.3 812.4,216.6 
	813.4,218.4 815.2,218.7 818,217.8 819,218.5 819.7,220.7 818.4,225.1 820.3,226.8 821.9,229.2 824.6,229.1 825.3,230.1 824.8,232 
	824.5,232.9 824.7,233.4 825.7,236.8 829,239.7 837.4,251 838.5,254.4 838.2,256.1 840.3,256.7 840.2,258.3 842.7,260.2 
	842.1,263.4 840.1,264 839.5,265.2 839.9,266.5 840.8,266.8 842.6,266.3 843,271.4 843.1,272.5 846.5,275.2 848.3,279.1 
	848.4,279.4 850.9,280.9 852.4,284.3 854.7,287.2 857,288.5 857.4,289.5 855.9,292.1 856,293.8 856.1,296.1 854.6,297.6 
	854.7,298.6 858,301.3 860.3,304 865.3,304.1 867.2,304.9 869.4,304.3 871.4,306.1 873.5,310.6 875.8,311 876.8,312.2 876.5,314.5 
	873.4,315.2 873.3,317.5 872.8,318.2 871.2,318.4 867.4,315.9 865,316.5 860.1,317.8 857.9,320.2 856.6,321.8 849.7,322.7 
	846.2,325.9 844.9,326.2 842.7,325.7 841.1,324.2 838.3,325.5 836.9,325.5 835,327.5 832.6,327.8 831.3,329.8 827.7,330 
	825.8,330.7 824.3,330.5 823.9,328.8 824.6,326.1 826.7,322.5 826.3,321.5 825.1,321.7 821.9,323.8 818.6,324.9 817.6,326 
	819.2,330.8 818.5,331.6 816.7,332 815.9,334.7 813.4,334.7 813.4,335.1 812.6,334.3 812.4,332.8 805.6,331.3 804.1,331.1 
	801.4,329.1 794.6,326.7 791.1,326.8 788.1,328 785.8,327.7 785.6,328 781.5,329.7 780.4,329.7 775.6,329.4 763.3,330.4 758,332 
	756.6,334.7 751.4,338 748.4,338.8 743.5,338.7 742.5,338.4 740.1,337.7 739.8,336.9 740.1,335.9 742.4,337 742.5,337 744.5,337.1 
	749,337.3 752.3,336.2 755.3,333.9 755.6,333.1 750,333.7 746.1,333.4 742.5,332.1 739.9,331.2 736,330.7 735.3,331.1 735.5,331.8 
	739.1,332.7 739.8,333.6 739.4,334.2 730,330.7 720.6,331.2 717.6,330.8 716.2,330.4 714.1,328.7 712.6,324.2 712.3,323.4 
	708.9,316.5 708.6,314.4 707.2,313.6 706.8,315.4 704.3,313.1 701.3,308.2 699,307.7 697.4,306.7 696.6,305.2 696.3,304.5 
	693.6,303.2 686.5,302.8 680.9,300.5 677,299.8 676.6,299.7 669.2,302.7 659.9,302.1 656.3,304.2 653.7,307.1 651.9,307.5 
	638,303.8 630.1,304.1 627.5,304.3 627,303.4 628.4,302.1 632.4,299.5 634.9,302 639.7,301.8 645.5,303.5 647.6,304.9 649.3,304.9 
	650.7,302.7 651.9,302.4 651.2,300.4 657.9,300.7 661.5,299.8 664.8,299.9 666.1,300.3 667.6,300.7 669.9,300.4 672.2,299.1 
	672.8,298 671.4,296.3 671.1,295.9 666,292.2 663.4,291.3 658.8,291.6 657.5,292.4 655.7,292.1 653.3,293.5 645.5,293.1 
	642.1,291.3 638.7,289.6 635.5,286.9 633.6,285.4 632.2,281.7 629.2,279.7 627.2,280 624.5,282 623.9,282.4 621.6,285.6 
	620.4,288.6 621.2,290.7 620.3,291.7 618.2,291.3 616.8,295.4 617.1,296 619.2,294.9 622.3,292 625,291.8 625.6,292.6 620.6,295.5 
	618.3,298.2 618,301.4 615.9,305.4 615.1,306 614.5,308 615.1,310.7 614.7,311.2 613.3,311.1 610.8,309.5 609.8,309.6 608.5,311.2 
	606.9,311.4 606,312.6 608.4,313.8 609.9,315.3 611.3,315.1 612.8,313.9 611.1,315.9 609.6,316.9 608.9,320 608.1,320.3 
	607.3,322.7 606,324.5 606,324.8 604.8,328.4 601.5,332.3 599.9,332.6 598.8,335.9 596.1,338.9 589.9,340.7 585.8,342.9 
	583.5,342.4 582.9,340.8 581.6,341 580.2,340.3 579.6,338 578.6,337.5 576.4,337.6 574.5,338.8 573.8,340.9 572.4,339.7 
	570.8,340.5 568.7,341.4 565.5,338 562.6,336.8 558.4,336.8 556.2,338 554.3,340.7 553.4,340.1 552.4,337.5 552.4,335.3 553.3,334 
	552.7,332.6 554.2,332.3 555.1,331.3 556.6,333.1 557.4,332.4 557,330.8 558,329 556.1,327.1 555.1,323.8 551.8,320.3 549.8,318.3 
	547.7,317.8 544.5,315.7 541.9,318.8 540.8,318.6 540,317.4 540.2,315.2 539.3,314.1 538.3,314.3 537.2,316.1 535.7,317.3 
	535.6,319 533.4,318.9 533.1,316.5 529.5,317.7 526.4,319.6 523.8,319 521.7,319.7 516.1,324.2 "/>
<path class="st0" d="M504.2,362.5c-0.9,0.7-0.7,1.8,0.4,1.8s2.9-0.5,2.2-1.8C506,361.3,505.1,361.8,504.2,362.5z"/>
<path id="path4213" inkscape:connector-curvature="0" class="st0" d="M92.1,155.1l17.4-19.8l31.3,0.6v-3.2l-2.8-4.7l-1.1-1.8
	l1.9-3.2v-4l1.7-2.8l1-5.2l-4.1-0.6l-3.3-5.2l-3.1-2.2l-3.6,0.3l-1.2-1.6l0.4-2.1l-2.5-3.1l-2.7,0.8l-4.1-1.2l-1,0.9l-1.5-0.1
	l-1.4-1l-1,0.4l-2.7-0.7l-0.9,1.7l-2.6,1.5l-0.3,2l-1.6,0.6l-0.7,1l-1.8,0l-1.9,1.8l-1.4,2.4l0.5,1.3l-2.8,1.7l-0.8,3.5l-3.6-0.3
	l-2.9,1.9l-1,2.2l0.5,3l-0.6,2.4l-1.6-2.4l-1.8,0.8l-3.7-0.3l-1.9,0.7l-3.3,6.6l-2.4,1.5l-0.7,4.2l-2.7,0.4l-1.3-2.7l-2.9-0.8
	l-2.6,1.6l-2.7,3.4l0.9,2.4l2.1,1.7l-1.8,4.6l1.7,3.8l-0.1,3.1l8.7,1.2l10.8,1.4l3.8,1.2L92.1,155.1z"/>
<path id="path4215" inkscape:connector-curvature="0" class="st0" d="M140.9,135.9l17.7,0.4l26.8,14.8l8.8,1.4l7.4,0.2l15.2,1.4h7.2
	l-0.8-2.8l-2.6-2.8l-0.7-4.7l-2.1-1l-3.8,0.2l-2.5-4.6l-3.3-1.4l1.9-2.6l-2.9-2.3l0.4-4l-5.4-5.2l-1.4-7.7l-3.2-0.7v-2.2l-5.9-3.2
	l0-2.5l2.2-2.1l0.2-4.9l-1.8-0.9l-1.5-2.7l-4.1-0.9l-3.4,2l-9,0.7l-1.3,1l-2.7,0.1l-4-0.9l-1.9,0.9l-2.5-0.3l-5.8,0.5l-1.6,1.1
	l-2.9-1.9l-1.7,2.8l-1.6-0.2l-0.6-3.6l-1.7-0.3l-2.7-2.8l-7.3,0.3l-2.9,1l-2,3.9l0.3,3.8l3.1,2.2l3.3,5.2l4.1,0.6l-1,5.2l-1.7,2.8v4
	l-1.9,3.2l3.9,6.5L140.9,135.9z"/>
<path id="path4217" inkscape:connector-curvature="0" class="st0" d="M62.6,151.1l-0.5,10.3l-2.7,4.5l-4.3,0.6l-2.5,2.9l-1.9,3.5
	l2,5.6l5.6,5.3l7.4,3.7l6.4,1.8l2.3,1.2l11.6-0.2l2.4,0.8l1.9,0l2.4,5.1l3.2,1.7l2.2,2.6l2.1,1.1l8.2-3.1l2.7-1.9l15-3.7l3.6,0.1
	l-1.6-5l-2.1-2l0.3-4.8l-5.1-3.8L120,171l-2-1.4l-0.3-3.4l-3.8-0.4l-1.3-2.5l2.5-1.7v-3l1.8-2.5l3,5.1l5.7,0.4l4.8-4.7l5.8-0.8
	l2.1-3l2.1,0.6l-1.8,4.8l4.1,3.8l2.7,1.1l2.8-3.3l4,0.7l3.1-0.8v-6.1l-2.8-3.5l1.7-8.1l-0.1-6.1l-13.2-0.3l-31.3-0.6l-17.4,19.8
	l-6.2-0.2l-3.8-1.2L62.6,151.1z"/>
<path id="path4219" inkscape:connector-curvature="0" class="st0" d="M129.8,193l1.1,2.3l1.4,0.5l3.6-1l2.4,1.6l10.2-2.8l5.3-0.1
	l1.5,1.4l0.4,2.2l1.1-0.1l1.1-2.3l7.3,0l4.3,2l3.6,3.5l1.4-3.7v-4.1l3.3-3.7l2,1.8l2.1-0.6l-1.6-6.9l1-4l2.4-0.7l1.8,2.7l2.8,0.8
	l3-4l10.5-9.1l0.1-4.7l1.8-3.7l-1.6-1.8l-3.8,0.8l0.1-7.1l-4.2-0.1l-8.8-1.4l-26.8-14.8l-4.5-0.1l0.1,6.1l-1.7,8.1l2.8,3.5v6.1
	l-3.1,0.8l-4-0.7l-2.8,3.3l-2.7-1.1l-4.1-3.8l1.8-4.8l-2.1-0.6l-2.1,3l-5.8,0.8l-4.8,4.7l-5.7-0.4l-3-5.1l-1.8,2.5v3l-2.5,1.7
	l1.3,2.5l3.8,0.4l0.3,3.4l2,1.4l1.3,6.4l5.1,3.8l-0.3,4.8l2.1,2L129.8,193z"/>
<path id="path4221" inkscape:connector-curvature="0" class="st0" d="M194.1,99.6l4.9-2l7.5,3.3l5-0.4l0.8,1.6l2.3-1l-0.1-2.7
	l-1.4-2.3l0.8-3.5l1.8-1.2l5.7,1.1l6.1-0.3l5.5,1.8l2,1.8l-1.4,2.5v4.2l2.7,0.1l4.2,2.7v2.8l-3.3,3.7l-3-0.4l-3,4l-6.4-1.3l-3.5-3.3
	l-6.9-1.4l-3.5-2.1l-0.7,4.8l-3-0.3l-0.8-1.7l-5.8,4.9l-3.2-0.7v-2.2l-5.9-3.2l0-2.5l2.2-2.1L194.1,99.6z"/>
<path id="path4223" inkscape:connector-curvature="0" class="st0" d="M215.8,91.5l0.5-2.1l-1.2-4.4l7.6,2.6l3.8,0.1l1.7-2.3l2.5,2.1
	l4.4-2.7l5.7-1l3.8-2.4l3.4-0.7l2.1,2.1l-0.6,4.1l3.3,6.1l-1.4,2.8l-2.4-3.8l-5.2-1.4l-3.4,3l-5.2,2.3l-2-1.8l-5.5-1.8l-6.1,0.3
	L215.8,91.5z"/>
<path id="path4225" inkscape:connector-curvature="0" class="st0" d="M215.1,85l2.5-5.2l1.6-1.7l3.2-1.1l3.6-2.7l3.5-0.5l5.4-2.6
	l7.2-0.4l4-1.4l5.7-0.1v6.6l-5.2,1.3l1.4,3.7l-3.4,0.7l-3.8,2.4l-5.7,1l-4.4,2.7l-2.5-2.1l-1.7,2.3l-3.8-0.1L215.1,85z"/>
<path id="path4227" inkscape:connector-curvature="0" class="st0" d="M223.9,154.1l-0.3,4.9l1.1,1.7l3,1l0.4,2l1.6,1l0.7,1.8
	l2.3,0.1l0.3,2.8l3,3l1.8,12.7l-2.8,1.2l-2.1-0.7l-1.9,2.9l2,5.2l43.8-15.4l6.8-48.8h-4.1l-1.4,1.4l-1.3-3.1l-2.4,2.8l-2.3-0.1
	l-1.1-2.8l2.1-1.7l-0.3-4.7l-1.8-1.8h-3.4l-2.5,3.7l-4.7,0.6l-9.2,5.4l-3.4-0.6l-0.3-4l-2.1-0.3l-4.4,4.7l-3.5,0.4l-3.4-5.2
	l-4.4-2.4l-1-3l2.8-3.1l-6.4-1.3l-3.5-3.3l-6.9-1.4l-3.5-2.1l-0.7,4.8l-3-0.3l-0.8-1.7l-5.8,4.9l1.4,7.7l5.4,5.2l-0.4,4l2.9,2.3
	l-1.9,2.6l3.3,1.4l2.5,4.6l3.8-0.2l2.1,1l0.7,4.7l2.6,2.8L223.9,154.1z"/>
<path id="path4229" inkscape:connector-curvature="0" class="st0" d="M283.5,129.4l7-53.7L274.6,73l-11.5-3.3l-4.4,0.2l-6.9-0.7v6.6
	l-5.2,1.3l1.4,3.7l2.1,2.1l-0.6,4.1l3.3,6.1l-1.4,2.8l-2.4-3.8l-5.2-1.4l-3.4,3l-5.2,2.3l-1.4,2.5v4.2l2.7,0.1l4.2,2.7v2.8l-3.3,3.7
	l-3-0.4l-3,4l-2.8,3.1l1,3l4.4,2.4l3.4,5.2l3.5-0.4l4.4-4.7l2.1,0.3l0.3,4l3.4,0.6l9.2-5.4l4.7-0.6l2.5-3.7h3.4l1.8,1.8l0.3,4.7
	l-2.1,1.7l1.1,2.8l2.3,0.1l2.4-2.8l1.3,3.1l1.4-1.4L283.5,129.4z"/>
<path id="path4231" inkscape:connector-curvature="0" sodipodi:nodetypes="cccccccccccccccccccccccccccccccccccccccccccccccccccccc" class="st0" d="
	M172.9,200.3l4.2,9.5l1.2,4.3l0.2,2.6l-1.2,2.2l3.1,4.2l0.4,1.6l-0.8,3.6l1.4,1.7l6.3,2.2l1.1,2.5l3,0.7l1.4,0.9l1.6-0.3l6.2,6.5
	l2.2,7l5.3,3.9l8.9-31.5l2.6-16l13.1-12.4l-2-5.2l1.9-2.9l2.1,0.7l2.8-1.2l-1.8-12.7l-3-3l-0.3-2.8l-2.3-0.1l-0.7-1.8l-1.6-1l-0.4-2
	l-3-1l-1.1-1.7l0.3-4.9h-7.2l-15.2-1.4l-3.2-0.1l-0.1,7.1l3.8-0.8l1.6,1.8l-1.8,3.7l-0.1,4.7l-10.5,9.1l-3,4l-2.8-0.8l-1.8-2.7
	l-2.4,0.7l-1,4l1.6,6.9l-2.1,0.6l-2-1.8l-3.3,3.7v4.1L172.9,200.3z"/>
<path id="path4233" inkscape:connector-curvature="0" class="st0" d="M217.3,222.1l10,5.1l3.6,3.1l1.8,3.5l4.6,0.5l1.7,2.6l2.4,0.8
	l1.2-3.4l1.8-0.7l1.4,2.4l2.6-6.3l1.2-4.5l2,1.8l1.2-1.8l1.4-0.2l2.1,6.3l4.9,1.6l-0.9,2.4h-2.8l-2.4,5.1l-2.3,1l1.4,4.3l-0.5,6.5
	l-1.9,2.3l-0.5,3.4l2.6,1.1l1.7-2.8l1.3-5.7l3.4-2.8l5.4-0.5l7.9-0.4l1.6-2l3.3,4l3.8,0.9l1.6-3.4l3.9,0.3l2.8,2l1.7-1.7l-0.4-18.7
	l2.8-1.3l1.4-3.7l-4.8-3.4v-4.2l-3-2.3l1.1-8.2l-0.2-16.4v-8.8l-12.4-1.6l-43.8,15.4l-13.1,12.4L217.3,222.1z"/>
<path id="path4235" inkscape:connector-curvature="0" class="st0" d="M208.4,253.6l-0.3,4.2l1.6,2l2.6,5.1l3.5,1.6l8.1,1.4l1.6-2.5
	l4.6-0.7l1.1,0.3l1.9,1.8l1.3-0.1l1.5-1.6l3.3,1.7l1.2,1.4l6.3,1.8l3.5,3l2.2,2.6l1,5.8l-1.1,2.7l-1.9,2.5l1.3,12.6l-0.5,2.1
	l5.3,1.4l2.4,2.4l5.1,1.4l1.7,3.3l0.6,2.5l-0.5,2.6l0.4,1.2l2.1,1.9l1.3,2.4l4.9,2.4l1.9,2.2l2-0.1l1.5,2.6l4.1,4l4,1.4l-0.3,3.2
	l2.8,0.5l5.3-2.1l5-0.1l3.1-1.2l3.4,0.3v-3.1l1.5-1.7l-3.6-3.2l-1.8-7.3l1.8-9.9l1.5-2.8l-7.4-4l-3.9-5l-3.2-7.7l-1.2-6.5l-0.6-3.3
	l2-2.3l1.4-2.4l-1.3-3l-2.6-2l-1.7,4.3l-2.4-1.2l-2.6,1.3h-4.8l-3.3-4.6l-0.9-4.7l3.8-1.2l0.4-2.5l-2-3.4l-1.3-2.7l-4.9-1.1
	l-1.6-2.6l-1.9-0.9l-1.4-2.7l-4.8,0.5l-3.4,2.8l-1.3,5.7l-1.7,2.8l-2.6-1.1l0.5-3.4l1.9-2.3l0.5-6.5l-1.4-4.3l2.3-1l2.4-5.1h2.8
	l0.9-2.4l-4.9-1.6l-2.1-6.3l-1.4,0.2l-1.2,1.8l-2-1.8l-1.2,4.5l-2.6,6.3l-1.4-2.4l-1.8,0.7l-1.2,3.4l-2.4-0.8l-1.7-2.6l-4.6-0.5
	l-1.8-3.5l-3.6-3.1l-10-5.1L208.4,253.6z"/>
<path id="path4237" inkscape:connector-curvature="0" class="st0" d="M292.2,276.6l2.8,2.1l0.9,3.9l1.7,1.4l3.7-9.4l3.2-0.8l1.3-1.3
	l2-0.5l1.5,3.5l-3,2l1.4,5l1.4,1.4l6.6-3l1.6-4.3l4.6-0.5l1.5,2.6l1.5-4.5l4.3,1.2l6.5-5.6l3-0.3l6.5,4.3l-7-25.3l-6.2-24.4
	l-2.4-39.2l-40.4-5l0.2,25.2l-1.1,8.2l3,2.3v4.2l4.8,3.4l-1.4,3.7l-2.8,1.3l0.4,18.7l-1.7,1.7l-2.8-2l-3.9-0.3l-1.6,3.4l-3.8-0.9
	l-3.3-4l-1.6,2l-8.5,0.4l1.4,2.7l1.9,0.9l1.6,2.6l4.9,1.1l3.3,6.1l-0.4,2.5l-3.8,1.2l0.9,4.7l3.3,4.6h4.8l2.6-1.3l2.4,1.2l1.7-4.3
	l2.6,2l1.3,3L292.2,276.6z"/>
<path id="path4239" inkscape:connector-curvature="0" class="st0" d="M307.1,333.4l11.4,1.3l7.8-1.7l4.1,0.5l2.6-0.8l1.7,0.8
	l2.2-0.4l2.8,1.3l6.2-2.2l6-0.8l0.2-2.4l2.8,0.2l-3.9-18.3l-3.6-24.3l-2.3-12.9l-6.5-4.3l-3,0.3l-6.5,5.6l-4.3-1.2l-1.5,4.5
	l-1.5-2.6l-4.6,0.5l-1.6,4.3l-6.6,3l-1.4-1.4l-1.4-5l3-2l-1.5-3.5l-2,0.5l-1.3,1.3l-3.2,0.8l-3.7,9.4l-1.7-1.4l-0.9-3.9l-2.8-2.1
	l-2,2.3l1.8,9.8l3.2,7.7l3.9,5l7.4,4l-1.5,2.8l-1.8,9.9l1.8,7.3l3.6,3.2l-1.5,1.7V333.4z"/>
<path id="path4241" inkscape:connector-curvature="0" class="st0" d="M329.5,184.9l4-2.3l2.7-1.8l1.4,1.1h2.7l1.4-2.3l2.4-1l2.4,0.6
	l5.3-0.1l1.6,1.7l3.1-1l2.7,2.7l5.5,0.4l3.5,3.1l4.8,1.6l1.1,3.5l3.8,2.4l0.9,2.5l5.7,2.5l17-76.4l-1.9-2.6V116l-1.9-1.7l-4,3.9h-2
	l-1.4-2.4l-2.9,0.9l-1.8,5l-3,1.2l-2.2-4.8l2-2.9l0.2-2.5l-5.1-0.5l-0.4,1.9l-6.2,5.3l-4.4-0.3l-1.6-1.3l-2.5,6.4l-4.2,0.8
	l-16.9,12.3l-12.9,10.9l-11,0.1l-19.7-2.3h-3.3l-0.6,5.8l-5.2,0.2l-8.2-1l-3.7,27.3l12.4,1.6L329.5,184.9z"/>
<path id="path4243" inkscape:connector-curvature="0" class="st0" d="M290.5,75.7L298,77l2.2,2.8l1.9,0.7l2,2.4l2.1,0.3l2.3,1.4
	l2.5-0.2l-1.3-2.9l1.1-0.6l4.9,0.3l3.7-0.9l2.1,0.2l1.4,2.4l0.7,1.6l3.4,1.9l2.8-0.2l1.7-1.4l-2.9-1.8l2.7-1.5l2.5,1l4.4,3.1
	l2.6,0.3l1.3-1.2l4-0.4l6.2-0.7L355,84l9.6-0.8l2.3,2.3l5.1,1.3l2.6-0.7l2.3,0.1l5.3,2.2l7.9-1.2l2.3,0.3l1.5,0.7l2.6,4.1l-1.8,5.2
	l0.8,2.1l4.9,1.9l0.1,1.9l-0.7,2.6l1.6,4.9l-1.7,5.1l-1.9-1.7l-4,3.9h-2l-1.4-2.4l-2.9,0.9l-1.8,5l-3,1.2l-2.2-4.8l2-2.9l0.2-2.5
	l-5.1-0.5l-0.4,1.9l-6.2,5.3l-4.4-0.3l-1.6-1.3l-2.5,6.4l-4.2,0.8l-16.9,12.3l-12.9,10.9l-11,0.1l-19.7-2.3h-3.3l-0.6,5.8l-5.2,0.2
	l-8.2-1l3-21.6L290.5,75.7z"/>
<path id="path4245" inkscape:connector-curvature="0" sodipodi:nodetypes="ccccccccccccccccccccccccccccccccccccccccccccc" class="st0" d="
	M345.2,273.8l4.2,0.6l2.3,1.7l2.1,3.7l2.3,0.7l3-5.8l4.7-2.7l1.3-2.1l2.1-0.8l0.3-3.5l-1.6-4l4.7,1.4l2.1-2.1l0.8-3.3l3.8-2.7
	l-0.8-2.3l3.7-2.3l3-3.7v-3.4l-5.7-3.4l-3.4-0.4l-4.4-6.8l-1.4-10l-4.9-1l1.1-3.7l-3.7-5.8l-2-5.4l-2.7-1l-2.5,2.8l-2-3l-6.1-1.8
	l2-11.2l3.4-4.5l1.1-4l-1.8-1.1l1.8-3.9l-5.3,0.1l-2.4-0.6l-2.4,1l-1.4,2.3h-2.7l-1.4-1.1l-2.7,1.8l-4,2.3l2.4,39.2l6.2,24.4
	L345.2,273.8z"/>
<path id="path4247" inkscape:connector-curvature="0" class="st0" d="M383.1,243.3l1.6-1.3l0.3-3.1l2-1.6l1.1,3.8l1.8,0.5l1.1,1.5
	l1.4,0.1l1.7-4l-2.8-3.2l4.5-2.1l3.5-6.5l-14.7-28.9l-5.7-2.5l-0.9-2.5l-3.8-2.4l-1.1-3.5l-4.8-1.6l-3.5-3.1l-5.5-0.4l-2.7-2.7
	l-3.1,1l-1.6-1.7l-1.8,3.9l1.8,1.1l-1.1,4l-3.4,4.5l-2,11.2l6.1,1.8l2,3l2.5-2.8l2.7,1l2,5.4l3.7,5.8l-1.1,3.7l4.9,1l1.4,10l4.4,6.8
	l3.4,0.4L383.1,243.3z"/>
<path id="path4249" inkscape:connector-curvature="0" class="st0" d="M351.9,331.5l6.8,1.7l10.7,6.1l1.4,1.8l2.5-0.2l1.4,1l4.2-0.9
	l3-2.2l4.8-1.2l5.4-2.3l12.5-2l9.3,0.3l3,1.6l1-2.6l7.4,0.8l4-0.8l5.1-12.1l-0.8-1.3l-0.2-3.8l-3.2-4.7l-0.4-2.6l-3.4-1.1l-0.3-5
	l-3.8-5.6l-1.1-7.8l2.9-4.2l-0.9-5l-3.9-7.3l0.8-1.8l-3.9-6.9l-2.8,2.5l-3.9-0.5l-1.8-2l-3-0.4l-3,3.1l2.8,2l0.3,4.5l-2.1,1.1
	l-1.2,5.1l-5.6-0.8l-0.8,2l-2.3-2.5l-2.6,2.8l-0.1,2.7l2.6,2.2l2.3,6.1l-7.3-1.2l-2.5,2l-1.8-1.6l-2.9-0.7L377,293l-1.6,2.6
	l-3.4-0.8l1.4-3.7l-4.5-4.4l0.6-3.6l-2.8-4.1l2.4-6.7l-2-3.3l-2.1,0.8l-1.3,2.1l-4.7,2.7l-3,5.8l-2.3-0.7l-2.1-3.7l-2.3-1.7
	l-4.2-0.6l2.3,12.9l3.6,24.3l3.9,18.3l-2.8-0.2L351.9,331.5z"/>
<path id="path4251" inkscape:connector-curvature="0" class="st0" d="M416.3,263.2l-17-35.8l-3.5,6.5l-4.5,2.1l2.8,3.2l-1.7,4
	l-1.4-0.1l-1.1-1.5l-1.8-0.5l-1.1-3.8l-2,1.6l-0.3,3.1l-1.6,1.3v3.4l-3,3.7l-3.7,2.3l0.8,2.3l-3.8,2.7l-0.8,3.3l-2.1,2.1l-4.7-1.4
	l1.6,4l-0.3,3.5l2,3.3l-2.4,6.7l2.8,4.1l-0.6,3.6l4.5,4.4l-1.4,3.7l3.4,0.8l1.6-2.6l3.6-3.4l2.9,0.7l1.8,1.6l2.5-2l7.3,1.2l-2.3-6.1
	l-2.6-2.2l0.1-2.7l2.6-2.8l2.3,2.5l0.8-2l5.6,0.8l1.2-5.1l2.1-1.1l-0.3-4.5l-2.8-2l3-3.1l3,0.4l1.8,2l3.9,0.5L416.3,263.2z"/>
<path id="path4253" inkscape:connector-curvature="0" class="st0" d="M416.3,263.2l2.8-1.6l1.9-0.4l2.9,2.3l7.7-5.3l5.2-1.4l1.3-3
	l-2.8-2.2v-2.9l2.7-1.8l-1.9-1.8l3.4-2.3l-2.2-1.9l0.1-4.1l0.9-1l2.3,2.9l2.3,0.2l1.9-2.9l-4.6-2.8v-3l1.5-1.8l1.3-3.1l-1.2-6.3
	l-2.5-0.6l0.5-6.6l-1.7-4L435,207l-3.1,1.3l1.7,2.1l-2.6,5.1l-5.4,0.1L420,209l-6.4-0.5l-5.1-2.9l-1.9-3.2l-4.7-0.8l-1.1,0.9h-3.2
	l-4.3-2l-1.1-2.9l-1.7-0.6l-1.7,1.5l-4.2,0l14.7,28.9L416.3,263.2z"/>
<path id="path4255" inkscape:connector-curvature="0" class="st0" d="M416.9,335.2l8.5,5.1l1.1,1.4l4.3,0.9l13,7.7l3,4.1l3.4,3.8
	l4.4-3.9l0.7-4.3l3-3.4l6.4,0.2l1.8-1.2l2.3,1.8l-3.7,4.3l-0.2,3.6l4.3,0.4l4.4,2.8l1-3.6l2.5-1.3l2.4-5.6l-5.1,1l-1.3-1.2l1-10.4
	l-3.5-1.6l-0.7-3.8l-2.4-1.3l0.1-5.3l-1.5-0.8l2-1.1l1.6-4.6l-4-0.1l-0.3-2.7l3.8-2.5l1.9-4.9l-2.7-4.6l1.7-3.1l-2-3.9l2.5-3.1
	l-1.8-3l-4.6-1.1l-1.2-4.4l-3.6-8.6l-4.5-4l-3.2-1.4l-2.1,2.4l0.3,3l0.8,2.7l3.4,2.3l-0.4,2l-6.4-2.3l-6.4-0.7l-0.6-3.2l-4.5-3.2
	l-3.4-6.5l-1.3-2.7l-2.4-0.2l-0.9,2.5l-2.2-0.5l-1.8-3.5l-2.9-2.3l-1.9,0.4l-2.8,1.6l3.9,6.9l-0.8,1.8l3.9,7.3l0.9,5l-2.9,4.2
	l1.1,7.8l3.8,5.6l0.3,5l3.4,1.1l0.4,2.6l3.2,4.7l0.2,3.8l0.8,1.3l-5.1,12.1l-4,0.8l-7.4-0.8L416.9,335.2z"/>
<path id="path4257" inkscape:connector-curvature="0" class="st0" d="M450.3,358.1l9.6,9l5.9,2.4l2,1.7l6.4,10.4l3.1,0.1l2.5,1.5
	l5.5,5.8l3.7,1.8l0.9,1l4.9,1.3l3,2l2.8,0.8l10.9-0.8l2.7-1.2l5.6-5.1l0.3-6.3l-5.2-3.9l-1.7-3l2.3-2.7l-1.3-2.1l-1.3,0.3l-0.7,1.5
	l-2.2,0l-2.4,1.8l-2.4-0.8l-4.5,0.9l-3.8-3.6l-5-0.3l-3.3,0.7l-1-3.5l1.2-2.3l6-3.3l1.5,0.2l1.3,4.6l3.4,1.3l0.2-2.7l1.4-2.6
	l4.6,0.1l-4.6-1.2l-1.1-2.7l-2.5,1.5l-1.9-0.1l-0.2-2.6l3.2,1.3l1.4-2.8l0.8-2.5l3.5-3.5l2.3,1.3l1.9,0.5l3.3,1.6l-0.7-1.4l1.6-1.2
	l-4.8-1.8l-2.4-3.9l0.2-3.1l3-5.5l1.6-7.2l5.5-5.8l-1.1-2l0.6-2l-1.2-2.7l0.4-7.8l-1.9-3.8l0.1-2.7l1.7-3.5l-7.7-15.2l-1.4-9.1
	l1.4-5.4l-3.7-2.6l-3.1-5.2l-2.6,0.7l-1.9,3.4l-2.2,0.9l-1.7-2.7l-1.6-0.6l-4.7-3.3L486,262l2.5,4.9l0.9,3.1l2.4,4.2l-2.6,1.3
	l-0.5,3.1l3.2,3.7l0.1,3.9l-4.8,5l-2.9,5.7l1,4.4l-6.9-1.7l-1.1,1.9l-3.2-1.4l-3.9,0.8l-1.7,3.1l2.7,4.6l-1.9,4.9l-3.8,2.5l0.3,2.7
	l4,0.1l-1.6,4.6l-2,1.1l1.5,0.8l-0.1,5.3l2.4,1.3l0.7,3.8l3.5,1.6l-1,10.4l1.3,1.2l5.1-1l-2.4,5.6l-2.5,1.3l-1,3.6l-4.4-2.8
	l-4.3-0.4l0.2-3.6l3.7-4.3l-2.3-1.8l-1.8,1.2l-6.4-0.2l-3,3.4l-0.7,4.3L450.3,358.1z"/>
<path id="path4259" inkscape:connector-curvature="0" class="st0" d="M451.8,271.4l-3.1-2.2v-2.3l2.2-0.7l1.1-2.3l3.3-0.6l2.7,2.9
	l5.1,1.2l2.3,7.4l4.5,1.3l13.8-0.9l-1-2.3l-0.5-4.2l1.9-0.8l1.6,1.8l-0.6,2l2.5,1.2l1.8-2.9l2.4,4.2l-2.6,1.3l-0.5,3.1l3.2,3.7
	l0.1,3.9l-4.8,5l-2.9,5.7l1,4.4l-6.9-1.7l-1.1,1.9l-3.2-1.4l-3.9,0.8l-2-3.9l2.5-3.1l-1.8-3l-4.6-1.1l-1.2-4.4l-3.6-8.6l-4.5-4
	L451.8,271.4z"/>
<path id="path4261" inkscape:connector-curvature="0" class="st0" d="M443,225.3l2.2-0.1l1.8,1.9l0.9,4.1l5.3-0.4l1.8,3.5l3.8-0.5
	l2.9,1.8l3.4-1.7l0.2-1.5l-4.7-1.5l1.5-3.1l1.9-1.3l-0.6-3.6l1.3-1.6l2.1-0.6l2.3,5.1l2.5,0.7l1.6,5.5l1.8,1.3l1.2-1.8l2.3-1.1
	l2,4.3l4.1,0.9l1.9-0.9l2.1,3.5l2.8-3.1l9,0l0.4,2l0.9,1.5l-1.5,2.5l-1.3,2.1l1.4,3.6l-0.9,1.9l-0.2,5.4l2.4,0.7l1.8-0.3l1.6,3
	l2.8,2l0.4,4.4l0.8,2.8l-0.8,3.2l-3.7-2.6l-3.1-5.2l-2.6,0.7l-1.9,3.4l-2.2,0.9l-1.7-2.7l-1.6-0.6l-4.7-3.3L486,262l2.5,4.9l0.9,3.1
	l-1.8,2.9l-2.5-1.2l0.6-2l-1.6-1.8l-1.9,0.8l0.5,4.2l1,2.3l-13.8,0.9l-4.5-1.3l-2.3-7.4l-5.1-1.2l-2.7-2.9l-3.3,0.6l-1.1,2.3
	l-2.2,0.7v2.3l3.1,2.2l-2.1,2.4l0.3,3l0.8,2.7l3.4,2.3l-0.4,2l-6.4-2.3l-6.4-0.7l-0.6-3.2l-4.5-3.2l-4.7-9.2l-2.4-0.2l-0.9,2.5
	l-2.2-0.5l-1.8-3.5l7.7-5.3l5.2-1.4l1.3-3l-2.8-2.2v-2.9l2.7-1.8l-1.9-1.8l3.4-2.3l-2.2-1.9l0.1-4.1l0.9-1l2.3,2.9l2.3,0.2l1.9-2.9
	l-4.6-2.8v-3l1.5-1.8L443,225.3z"/>
<path id="path4263" inkscape:connector-curvature="0" class="st0" d="M500.4,235.1l1.4-4l-12.6-28.4l-4.6,0.6l-2.8,0.8l-2.4,0.6
	l-2,1.3l-2.5-2.8l-1.9,0l-3.8-3.8l-5.8,2.6l-28.2-5.8l-5.4-4.4l-2.8,0.6l-5.2,1l-6,0.6l-3.3,3.8l-1.5,0.3l-4.4,4.3l1.9,3.2l5.1,2.9
	l6.4,0.5l5.6,6.6l5.4-0.1l2.6-5.1l-1.7-2.1l3.1-1.3l3.1,0.8l1.7,4l-0.5,6.6l2.5,0.6l1.2,6.3l2.2-0.1l1.8,1.9l0.9,4.1l5.3-0.4
	l1.8,3.5l3.8-0.5l2.9,1.8l3.4-1.7l0.2-1.5l-4.7-1.5l1.5-3.1l1.9-1.3l-0.6-3.6l1.3-1.6l2.1-0.6l2.3,5.1l2.5,0.7l1.6,5.5l1.8,1.3
	l1.2-1.8l2.3-1.1l2,4.3l4.1,0.9l1.9-0.9l2.1,3.5l2.8-3.1L500.4,235.1z"/>
<path id="path4265" inkscape:connector-curvature="0" class="st0" d="M469.1,199.3l-1-4l-0.9-5.2l4.6,3.3l1.2-4.6l-1.6-5.3l-6.2-0.6
	l0.2-7.1l1.1-3.3l0.1-6.8l-2.9-4.2l-6.3-1.5l-0.4-7.6l-2.4-2.1l-4.3-0.1l-2.4,2.1l-2.5-2.1l-3.6-0.6l-1.2-4.7l-6.2-0.2l-4.7-5.2
	l0.2-2.4l3.2-0.9l3.7,1.1l1.1-2.7l-1.7-3l-3.3-0.2l-3-2.5l-1-2.5l-4.6,3.5l-2.7-4l-0.4-2l-5.6,0.1l-4.6,1.6l-1.6-1.9l-3.7,1.7
	l-4.5-3.3l-17,76.4h4.2l1.7-1.5l1.7,0.6l1.1,2.9l4.3,2l3.2,0l1.1-0.9l4.7,0.8l4.4-4.3l1.5-0.3l3.3-3.8l6-0.6l8-1.6l5.4,4.4l28.2,5.8
	L469.1,199.3z"/>
<path id="path4267" inkscape:connector-curvature="0" class="st0" d="M457.3,152.3l-0.1-3.4l1.1-2.1l0.6-3.1l-3.3-0.4l-1.5-4
	l-2.5-2.7l2.8-3.7l1.9-5.7l15.4-0.8l3.1-2.6l-0.5-5.5l-2-2.5l1.1-5.4l3.3-2.5l1-4l6.4-3.5l0.5-2.2l-7.4-2l-2.6,0.3l-1.2-1l-2,0.2
	l-9.6-2.8l-8.6-0.4l-2.6-1.4l-1.3,0.3l-2.7,2.7l-9.8,0.6l-1.6,1.2L433,96l-7.6-3.7l-1,0l-1.6,1.1l-4.5-0.6l-1.7,0.2l1.2,1.8
	l-0.6,0.9l-3.1,0.2l-2.3-1.6l-0.5-2.3l-3.8-1l-4.6-2.5l-1.9,0L399,91l-2.5,1.3l-1.8,5.2l0.8,2.1l4.9,1.9l0.1,1.9l-0.7,2.6l1.6,4.9
	l-1.7,5.1v3.5l1.9,2.6l4.5,3.3l3.7-1.7l1.6,1.9l4.6-1.6l5.6-0.1l0.4,2l2.7,4l4.6-3.5l1,2.5l3,2.5l3.3,0.2l1.7,3l-1.1,2.7l-3.7-1.1
	l-3.2,0.9l-0.2,2.4l4.7,5.2l6.2,0.2l1.2,4.7l3.6,0.6l2.5,2.1l2.4-2.1l4.3,0.1L457.3,152.3z"/>
<path id="path4269" inkscape:connector-curvature="0" class="st0" d="M489.1,202.7l50-6.6l30.8-16l-9.4-16.4l-1.4-3.6l-1.9-0.6
	l-0.7-2.8l0-2.6l-3.6-2.2l-0.4-2.7l0.6-2.1l-1.2-5.7l0.7-3.2l-3.5-3.1l0.2-2.7l1.6-3.4l-1.2-4.6l-1.4-4.6l-4.2,0l-0.7,4.2l-2.9-1.4
	l-1.5,2.1l1,5l-3,1.6l-1.6-2.4l-0.7-4.8l-2.4-2.5l-0.1,8.8l-1.5,2.6l-2.9,1.6l-0.2-12.2l-2.7-0.7l-3.8,2.9l-3.3,0.5v3.5l-3.3-3.1
	l-2.5-3.3l-5.3-0.5L505,123l3.3,5.5l-3.1,1.9l-3.5-1.9l-5-1l-4.1-3.1l-0.4-2.9l-3.5,1.1l-0.7-4.5l-5.7,0.7l-8.2-0.6l0.5,5.5
	l-3.1,2.6l-15.4,0.8l-1.9,5.7l-2.8,3.7l2.5,2.7l1.5,4l3.3,0.4l-0.6,3.1l-1.1,2.1l0.1,3.4l0.4,7.6l6.3,1.5l2.9,4.2l-0.1,6.8l-1.1,3.3
	l-0.2,7.1l6.2,0.6l1.6,5.3l-1.2,4.6l-4.6-3.3l0.9,5.2l1,4l3.8,3.8l1.9,0l2.5,2.8l2-1.3l5.2-1.4L489.1,202.7z"/>
<path id="path4271" inkscape:connector-curvature="0" class="st0" d="M484,100.4l1.3,1.3l4.6,0.3l2.2,1.7l4.4,0.5l1.7-1.3l1.7,1.1
	l2.7-0.3l1.5,0.7l3.8,4.6l8.1,3.7l4.1,0.6l1.6,1.8l2.3,0.6l4.2,1.6l3.8-2l5.4,0.3l2.6-1.3l1.6-1.4l3,0l2.5,4.1l1.4,2.6l-4.2,0
	l-0.7,4.2l-2.9-1.4l-1.5,2.1l1,5l-3,1.6l-1.6-2.4l-0.7-4.8l-2.4-2.5l-0.1,8.8l-1.5,2.6l-2.9,1.6l-0.2-12.2l-2.7-0.7l-3.8,2.9
	l-3.3,0.5v3.5l-3.3-3.1l-2.5-3.3l-5.3-0.5L505,123l3.3,5.5l-3.1,1.9l-3.5-1.9l-5-1l-4.1-3.1l-0.4-2.9l-3.5,1.1l-0.7-4.5l-5.7,0.7
	l-8.2-0.6l-2-2.5l1.1-5.4l3.3-2.5l1-4L484,100.4z"/>
<path id="path4273" inkscape:connector-curvature="0" class="st0" d="M517.2,324.1l4.8-3.9l2.1-0.7l2.6,0.6l3.1-1.9l3.6-1.1l0.3,2.4
	l2.2,0.1l0.1-1.7l1.6-1.2l2.1-2.1l0.8,1.1l0.7,3.5l1.1,0.2l2.6-3.2l3.1,2.1l2.2,0.5l2.5-2.1l-1-5.1l0.7-16.1l-2.7,0.6l-3.9,3.3
	l-1.6-0.5l0.8-10.5l-4-4.9l-3.3-0.5l-3.9,1.6l-1.9-2l-0.9-5l-1.7-5.6l-3.5-0.5l-4.4-5.8l-2.6-5.7l-2-0.3l-2.1,3l-2,2.2l-1.7-3.3
	l-2.8,2.3l0.8,2.8l-0.8,3.2l-1.4,5.4l1.4,9.1l7.7,15.2l-1.7,3.5l-0.1,2.7l1.9,3.8l-0.4,7.8l1.2,2.7l-0.6,2L517.2,324.1z"/>
<path id="path4275" inkscape:connector-curvature="0" class="st0" d="M550.2,318.8l5.3,5.5l1,3.3l1.9,1.8l-0.9,1.8l-0.5,2.3
	l-1.4-1.8l-1.8,2.7l-0.9,3.5l1,2.7l0.9,0.6l1.9-2.7l3.5-1.8l2.9,0.6l2.9,1.2l1.6,1.2l3.5-6.1l8.6-16.1l9.1-15.6l0.1-8.5l2.3-2
	l-1.8-6.8l-3.5-1.8l-4.5,0.1l-2.9-4.3l-5.9-2l-3.9-1.7l-2.5,3.2l-3.2,0.5l-2.1-2l-3-2.1l-1.2,6.1l2.4,4.5l-6.5-0.4l-1.8-1.4
	l-5.7,5.1l-0.8,10.5l1.6,0.5l3.9-3.3l2.7-0.6l-0.7,16.1l1,5.1L550.2,318.8z"/>
<path id="path4277" inkscape:connector-curvature="0" class="st0" d="M585.8,282.8l-1.8-5l0.2-5.2l2-3.8l-1.6-2.2l-3-1.6l-1.1-2.4
	l-2.1,1.6l0.9,4.5l-1.6,2.7h-2.2l-1.5-3.6l-1.4,4.8l-0.1,4l5.9,2l2.9,4.3L585.8,282.8z"/>
<path id="path4279" inkscape:connector-curvature="0" sodipodi:nodetypes="cccccccccccccccccccccccccccccccccccccccccccccccccccc" class="st0" d="
	M567.5,339.7l1.6,2.2l3.6-1.7l1.4,1.2l0.7-2.2l1.9-1.2l2.3-0.1l1,0.6l0.5,2.3l1.4,0.7l1.3-0.3l0.6,1.7l2.3,0.5l4.1-2.2l6.3-1.8
	l2.7-3l1.1-3.3l1.5-0.3l3.3-3.9l1.2-3.9l1.3-1.8l0.8-2.4l1.5-3.4l3.2-3l-2.9,1.5l-1.5-1.6l-2.3-1.1l0.9-1.3l1.5-0.2l1.3-1.6l1-0.1
	l1.4,1l2.5,0.7l0.4-0.5l-0.6-2.6l0.6-2l0.7-2.1l1.6-3.2l-8.1-5.9l-1.6-2.5l-1.9-0.6l-2.2,2.2l-4-1.4l-5.5-5.5l-1.8-4.1l-3.4,1.3
	l1.8,6.8l-2.3,2l-0.1,8.5l-9.1,15.6l-8.6,16.1L567.5,339.7z"/>
<path id="path4287" inkscape:connector-curvature="0" class="st0" d="M574,267.8l-3.5-0.2l0.4-1.8l2.8-1.6l-0.7-4.4l-4.1-0.1
	l0.6-2.3l1.1-2l-1-3.1l-5.5-4.7l-1.8-1.8l-6.4-0.6l-1.7,2.5l-4.4,0.1l-4.4,0.4l3.3-2.8l-1.7-1.7v-3.1l3.4-2.4l1.1-2.1l-1.3-4.2
	l-1.8-2.4l1.4-1.1l-1.8-4.5l-3.1,5.5l1,2.7l-4.7-2.7l-3.8-0.1l-4.4,2.3l-5.7-0.1l-6.4,1.3l-1.4-1.7l-2.4,0.1l-0.6,9.3l-2.5,0.8
	l-3.7-3.4l-10-2.8l0.4,2l0.9,1.5l-2.8,4.6l1.4,3.6l-0.9,1.9l-0.2,5.4l2.4,0.7l1.8-0.3l1.6,3l2.8,2l0.4,4.4l2.8-2.3l1.7,3.3l2-2.2
	l2.1-3l2,0.3l2.6,5.7l4.4,5.8l3.5,0.5l1.7,5.6l0.9,5l1.9,2l3.9-1.6l3.3,0.5l4,4.9l5.7-5.1l1.8,1.4l6.5,0.4l-2.4-4.5l1.2-6.1l3,2.1
	l2.1,2l3.2-0.5l2.5-3.2l3.9,1.7l0.1-4L574,267.8z"/>
<path id="path4291" inkscape:connector-curvature="0" class="st0" d="M563.9,221.1l-0.7-4.4l3.3-1.3l1.3-5.4l-3.8-1.1l-3,0.7
	l-1.7-3.4l-3.3-0.7l-0.6,2.4l-2.5,1.1l-0.6-5.2l-1.7-1.6l-0.1-5.8l-6.9-2.7l-4.4,2.3l-50,6.6l12.6,28.4l-1.4,4l10,2.8l3.7,3.4
	l2.5-0.8l0.6-9.3l2.4-0.1l1.4,1.7l6.4-1.3l5.7,0.1l4.4-2.3l3.8,0.1l4.7,2.7l-1-2.7l3.1-5.5l1.8,4.5l-1.4,1.1l1.8,2.4l1.3,4.2
	l3.7,0.8l3.3-0.4l2.8-1.8l-1.6-2.1l-3,0.6l0.7-3.5l-1-3l1.3-2.5l3,3.7l0.6-5.4L563.9,221.1z"/>
<path id="path4339" inkscape:connector-curvature="0" class="st0" d="M631.6,280.1l1.6-1.9l-0.9-0.8l0.3-1.5l-0.7-1.5l0.9-2.3V270
	l-1,0.1l0.1-1.2l-1.4-0.6l-3.4-0.1l-0.8-0.8l2.1-2.2l-0.6-0.5l0.3-0.7l2.6-0.6l0.9-0.8l-2.1-1l-0.8-0.7l-1.9,0.2l-1.6-1.8l-0.6-0.8
	l-0.8,0.2L623,258l-1,0.4l-1.2-0.4l-0.3-0.8l-1.2,0.3l-0.6-1.2l-1.3-0.3l-0.9,0.4h-0.9l-0.4-0.8l-2.4-1l-1.9,9.4l1.4,0.9l1.5,1.4
	l1,2.1l0.6,0.6l1.4-0.1l1.5,1.4l1.2-0.3l1.2-0.1l0.7,1.1l0.8-0.5l1.5,0.3l0.7,1.4l-0.1,1.2l0.8,1.2l0.1,1.9l1.5,0.4l-0.1,2.8
	l1.8-0.8l0.9,0.8l1-0.2L631.6,280.1z"/>
<path id="path4341" inkscape:connector-curvature="0" sodipodi:nodetypes="cccccccccccccc" class="st0" d="M631.6,280.1l-0.3,0.8
	c0,0,2.6,4.7,3.5,5.4l0.7,0.7l1.9,0.1l2.5-2.7l0.5-1.4l2.3-2.5l-2-0.3l-1,0.5l-2.7-3.9l-2.3,1.9l-1.3-0.5L631.6,280.1z"/>
<path id="path4343" inkscape:connector-curvature="0" sodipodi:nodetypes="ccccccccccccccccccccccc" class="st0" d="M637.3,287.1
	l-0.6,0.4l0.2,0.7l1.3,0.8l0.3,0.5l0-0.1l1.2,0.9l2.6,1.3l1.5,0.9l0.7,0.4l2.6,0.2l0.6-1l0.5-5.6l-0.7-0.6l0.1-1.4l-0.5-0.6l-1,0.5
	l-1,2l-1.3-0.6l-0.8,0.3l-0.5,0.8l-2.8-2.5L637.3,287.1z"/>
<path id="path4345" inkscape:connector-curvature="0" class="st0" d="M647.2,284l0.8-1.5l0.3-2.1l-2.9,0.1l-2.8,0.2l-2.3,2.5
	l-0.5,1.4l2.8,2.5l0.5-0.8l0.8-0.3l1.3,0.6l1-2L647.2,284z"/>
<path id="path4347" inkscape:connector-curvature="0" class="st0" d="M631.9,268.9l4.5-0.4v2.1l-0.9,0.7l-0.1,1.4l1.9,1.4l0.6,0.6
	l-0.8,0.6l-0.1,1.4l-2.3,1.9l-1.3-0.5l-0.9-0.8l0.3-1.5l-0.7-1.5l0.9-2.3V270l-1,0.1L631.9,268.9z"/>
<path id="path4349" inkscape:connector-curvature="0" sodipodi:nodetypes="cccccccccccccccccccccccc" class="st0" d="M636.3,268.5
	l2.1-0.8l4.4,0.3l1.4,0.4l1.1,0.9v2.2l-0.6,1.7l0.5,1.2l-0.3,0.7l2.1,1.4l0.1,2l1.4,1.8l-2.9,0.1l-2.8,0.2l-2-0.3l-1,0.5l-2.7-3.9
	l0.1-1.4l0.8-0.6l-0.6-0.6l-1.9-1.4l0.1-1.4l0.9-0.7V268.5z"/>
<path id="path4351" inkscape:connector-curvature="0" sodipodi:nodetypes="ccccccccccccccccccccccccccc" class="st0" d="
	M647.2,293.1l2,0.4l0.5,0l1.1,0l1.6-0.3l1.1-0.3l-0.1-0.5v-2l-0.8,0.3l-0.6-0.5v-1.4h0.8l0.4-0.7l0.7-0.1l0.5,0.3l1,0.1l0.3-1.9
	l-3.4-0.2l0.1-1.2l-1.5,0.1l-0.9-0.8l-2.8-0.5l0.5,0.6l-0.1,1.4l0.7,0.6l-0.5,5.6L647.2,293.1z"/>
<path id="path4353" inkscape:connector-curvature="0" class="st0" d="M645.1,274.4l3.2-1.9l3.7-2.1l3-0.1l0.6,0.3l-0.8,0.6v2.3
	l-0.1,1.4l2.1,7.6l1.1,1.1l0.5,1.9l-2.8,0.8l-3.4-0.2l0.1-1.2l-1.5,0.1l-0.9-0.8l-2.8-0.5l0.8-1.5l0.3-2.1l-1.4-1.8l-0.1-2l-2.1-1.4
	L645.1,274.4z"/>
<path id="path4357" inkscape:connector-curvature="0" sodipodi:nodetypes="ccccccccccccccccccccccccccccccccccccccccccccccccccccccccccccccccccccccccccc" class="st0" d="
	M658.4,285.7l2,0l11.1,3.9l1.7,0.3l0.3,3l-1.2,3.7l2.3,4l-5.1,2l-3.9-0.2l-3.7,0l-1.9-0.4l-3.9,2.1l-2.6,3.2l-4.1-0.6l-5-0.9
	l-2.7-1.4l-2.7-0.2l-2.4-0.3l-2.5-0.5l-2.5,0.8l-1.7-0.1l-1.1,0.8l-0.7-0.9l-1-0.6l-0.3-0.5l0.5-0.6l2.5-1.2l-0.7-0.2l2.7-1.6
	l-1,0.9l-0.2-0.2l1-0.9l0.9,0.5l1.9,2.3l2.9-0.4l1.8-0.1l2,1.5h2.3l5.2,1.7l1.3-1.3l1.3-1.9l0.3-0.5l0.4-0.5l2.5,0.4l4-0.5l7.5-0.7
	l2.6,0.9l2.5-1.1l3.5,0.6l-2.3-3.1l-2.3-2.3l-1.9-0.7l-1.1-0.8l-1.7-1l-1.9-0.9l-1.3-0.1l-0.7-0.1l-0.8,0.4l-1.4-0.1l-0.1,0.6
	l-1.4,0.2l-0.8-0.6l-1.4,0.6l-2.2,0.1v-2l-0.8,0.3l-0.6-0.5v-1.4h0.8l0.4-0.7l0.7-0.1l0.5,0.3l1,0.1l0.3-1.9L658.4,285.7z"/>
<path id="path4359" inkscape:connector-curvature="0" class="st0" d="M655.6,270.7l1.4-0.7l0.5-1.2l2.8-1.8l0.6-1.2l0.9-0.4l1.1,0.6
	l2.3-0.1l2.1,0.7l0.1,1l0.7,1.1l-0.8,0.1v1.2l-0.9,0.5l0.6,1.2l-0.5,1.5l1.2,2v2.8l-0.8,1l0.2,1.2l1.4,1.7l0.5,3.4l1.2,1.6h0.7
	l0.6,1.2l-0.1,1.3l-11.1-3.9l-2,0l-0.5-1.9l-1.1-1.1l-2.1-7.6l0.1-1.4v-2.3L655.6,270.7z"/>
<path id="path4361" inkscape:connector-curvature="0" class="st0" d="M628.7,261l0.5-0.6v-1.2l-1.1-0.1l-1.2,0.4l-0.5-0.5l0.7-1
	l1.6,0.7l1.8-2l0.9-0.2l0.6,1.1l0.8,0.4l1.1-0.8l0.4-1.2l-0.8-0.1l0.5-1.9l0.9-0.2l0.8-0.7l2.6,2.1l0.8,0.4l0.3-2l1-0.3l2.3-0.3
	l0,2.1l-0.4,1.3l0.3,2.1l1.3,2.9l-2,1.1l-3.1-0.4l0.1,1.1l0.9,2.5l-0.8,0.6l-0.5,1.6l-2.1,0.8l-4.5,0.4l-1.4-0.6l-3.4-0.1l-0.8-0.8
	l2.1-2.2l-0.6-0.5l0.3-0.7l2.6-0.6l0.9-0.8l-2.1-1L628.7,261z"/>
<path id="path4363" inkscape:connector-curvature="0" class="st0" d="M642.8,268l0.6-1.3l1.1-1.1l0.5-0.7l1,0.1l0.5,0.7l1.8-0.9
	l0.9-2.1l0.7-2.6l1.2-1.1l0.2-1.2l2-1.4l0.7-1.3l-0.4-0.9l0.7-0.6l-0.8-1.3l-0.2-1l0.8-0.8l0.7,0.6l1-0.9l0.3-0.5l1.2,0.5l1.4-0.4
	l1.4,1.1l1.2,0.9l0.9,0l0.4-0.5l1.2,0.4l-0.4,1.8l0.4,0.8l-0.3,0.6l-0.1,1.6h-0.7l-0.4-0.8l-2.1,0.4l1.2,0.7l-1,1.9v1.1l1.7,1.1
	l0.4,1.9l1.3,2.1l0.8,0.1l0.9,1l-2.3,0.1l-1.1-0.6l-0.9,0.4l-0.6,1.2l-2.8,1.8L657,270l-1.4,0.7l-0.6-0.3l-3,0.1l-3.7,2.1l-3.2,1.9
	l-0.5-1.2l0.6-1.7v-2.2l-1.1-0.9L642.8,268z"/>
<path id="path4365" inkscape:connector-curvature="0" class="st0" d="M635.6,252.9l-1-0.4l-1-1.1l-0.7-0.8l1,0.1l0.8,0.8l1.3-1.2
	l-0.4-0.6l1.1-1l0.4-0.9l0.6,0.4l0.7-0.2l-0.2-0.5l0.7-1l0.9,0l0.3,1.6l1.3,1.5l0.8,0.5l0.4-0.7l0.8-0.6h0.9l0.2,1.9l1.5,0.1
	l1.3,0.5l1.4-0.2l0.1-0.6l1.3-0.2l-0.2-1.3l0.5-1.9h0.9l0.4,0.7l1,0.5l0.5-1.3l0.8,0.1l0.4-1l0.8-0.3l1.4,0.7l-0.5,1l0,2.2l-0.3,0.5
	l-1,0.9l-0.7-0.6l-0.8,0.8l0.2,1l0.8,1.3l-0.7,0.6l0.4,0.9l-0.7,1.3l-2,1.4l-0.2,1.2l-1.2,1.1l-0.7,2.6l-0.9,2.1l-1.8,0.9l-0.5-0.7
	l-1-0.1l-0.5,0.7l-1.1,1.1l-0.6,1.3l-4.4-0.3l0.5-1.6l0.8-0.6l-0.9-2.5l-0.1-1.1l3.1,0.4l2-1.1l-1.3-2.9l-0.3-2.1l0.4-1.3l0-2.1
	l-2.3,0.3l-1,0.3l-0.3,2l-0.8-0.4L635.6,252.9z"/>
<path id="path4367" inkscape:connector-curvature="0" class="st0" d="M612.7,254.5l0.8-1.9l1.4-2.5l-2.6-1.6l-1.5-0.7l1.2-2.5
	l2.4-0.1l1.9,0.5l1.8-1.9l-0.1-1.2l1.6-2.1l0.1-1.7l0.5-2.8l-0.7-1l0.5-0.9l-0.8-1.2l-0.9-0.6l-1-0.4l-0.6,1l-0.8-1l-0.8-1l2.1-0.8
	l-0.5-1l0.5-0.9L617,227l0.5-0.8l-0.3-0.9l1.3-0.5l-0.6-0.6l0.2-1.1l-0.6-1l0.2-5.6l0.9-0.5l3.9-0.3l1.1-0.6l0.9,0.3l0.8-0.8
	l-0.6-1.8l0.6-0.8v-1h-1.2l0.6-1.9l-0.4-0.8l1.2-0.1l3.5,2.3l1.2,2.4l1.9,1l0.6,1l1.2,0.6V213l1.1-0.2l1-2.3l-0.8-0.7l0.7-1l0.1-1.5
	l1.4,1l1.4-0.4l2.3,1.1l2.2,0.3l1.4,1.6l1,2.3l1.5,2.3l2.7,1.5l2.3,0.1l2.3,1.9l1.1,0.2l2.2-0.8l1.4,0.6l1.4,3.7l0.9,1.6l0.4,2.3
	l3.2,2.5l0.2,1.4l-1.2,0.5l-3.2,4.3l0.1,1.1l1,1.1l-0.6,2.9l-1.3,1.5l-1,1.5l-0.3,2.1l0.5,1l-0.7,1.2l-2.5-0.1l0.5-1l-1.4-0.7
	l-0.8,0.3l-0.4,1l-0.8-0.1l-0.5,1.3l-1-0.5l-0.4-0.7h-0.9l-0.5,1.9l0.2,1.3l-1.3,0.2l-0.1,0.6l-1.4,0.2l-1.3-0.5l-1.5-0.1l-0.2-1.9
	h-0.9l-0.8,0.6l-0.4,0.7l-0.8-0.5l-1.3-1.5l-0.3-1.6l-0.9,0l-0.7,1l0.2,0.5l-0.7,0.2l-0.6-0.4l-0.4,0.9l-1.1,1l0.4,0.6l-1.3,1.2
	l-0.8-0.8l-1-0.1l1.6,2l1,0.4l-0.8,0.7l-0.9,0.2l-0.5,1.9l0.8,0.1l-0.4,1.2l-1.1,0.8l-0.8-0.4l-0.6-1.1l-0.9,0.2l-1.8,2l-1.6-0.7
	l-0.7,1l0.5,0.5l1.2-0.4l1.1,0.1v1.2l-0.5,0.6l-1.9,0.2l-1.6-1.8l-0.6-0.8l-0.8,0.2L623,258l-1,0.4l-1.2-0.4l-0.3-0.8l-1.2,0.3
	l-0.6-1.2l-1.3-0.3l-0.9,0.4h-0.9l-0.4-0.8L612.7,254.5z"/>
<path id="path4369" inkscape:connector-curvature="0" sodipodi:nodetypes="cccccccccccccccccccccccccccccccccccccccccccccccccccccccccccccccccccccccccccccccccccccccccccccccccccccccccccccccccccccccccccccccccccccccc" class="st0" d="
	M673,299.8l2.6,0.2l1.6-0.4l2.9,0.8l2.5,0.6l1.6,0.8l2.1,0.9l1.9,0.4l3,0l1.6-0.9l1.6,0.7l1.2-0.8h1.9l0.5-2.7l3.8-1.2l0.6-2.6
	l-1.3-2.1l0.6-1.2l-1.9-4.9l0.3-2.5l0.8,1.4l2.1,0.7l2.9-1l0.8,0.5l2.9-0.5l1,0.4l0.3-1.2l1.4-0.6l-2.7-0.8l-0.5-2.3l-0.6-2.6h-0.9
	l-1-1.6l-1.8-0.8l2.2-1.4l2.4-2.7l-0.4-1.7l-3.3-1.4l-3.8-3.2l-0.2-1.6l-0.9-0.6l-1.3-2.4l0.7-0.9h2l0.1-2.2l1.4-0.8l1.1-0.2
	l0.3-1.9l-0.7-1.3l-1.5-0.4l0.4-1.5l0.9-0.5l-0.6-1.4l0.5-1.6l-0.8-1.4l0.7-1l-0.6-1.8l1.3-2.5l-0.8-1.2H702l-1.6,0.8l-1,1.2H698
	l-3.7-2.5l-3.1-0.9l-2.3-2.3l-1.4,0.1l-1.1,2.5l-0.7,2.9l0.4,1.2l-2,0.6l-0.9,1.1l-1.6,0.4l-0.6,2l-3.5-2.1l-3.4,0.7l-2-2.2
	l-3.4-4.2l-1.1-2.8l-2-2.2l-0.2-5l-1.2,0.5l-3.2,4.3l0.1,1.1l1,1.1l-0.6,2.9l-1.3,1.5l-1,1.5l-0.3,2.1l0.5,1l-0.7,1.2l-2.5-0.1
	l0,2.2l1.2,0.5l1.4-0.4l2.6,2l0.9,0l0.4-0.5l1.2,0.4l-0.4,1.8l0.4,0.8l-0.3,0.6l-0.1,1.6h-0.7l-0.4-0.8l-2.1,0.4l1.2,0.7l-1,1.9v1.1
	l1.7,1.1l0.4,1.9l1.3,2.1l0.8,0.1l0.9,1l2.1,0.7l0.1,1l0.7,1.1l-0.8,0.1v1.2l-0.9,0.5l0.6,1.2l-0.5,1.5l1.2,2v2.8l-0.8,1l0.2,1.2
	l1.4,1.7l0.5,3.4l1.2,1.6h0.7l0.6,1.2l-0.1,1.3l1.7,0.3l0.3,3l-1.2,3.7L673,299.8z"/>
<path id="path4403" inkscape:connector-curvature="0" sodipodi:nodetypes="cccccccccccccccccc" class="st0" d="M608.1,292.7l4.7-3.8
	l-3.5-1.3l3.1-4.8l4,2.3l-0.8-6.6l5.4-1.6l4.5-0.5l1.5,0.4l-0.1,2.8l-2.4,3.2l-2.7,2.7l-0.9,3.5l-0.1,3.1l-1,3.3l-2.1,5.9l-7.8-6.1
	L608.1,292.7z"/>
<path id="path4405" inkscape:connector-curvature="0" class="st0" d="M592.7,283.3l6.1-0.3l3.1-2.7l1.6-4.2l5.9-3.3l5.4-4.6l0.6,0.6
	l1.4-0.1l1.5,1.4l2.5-0.3l0.7,1.1l0.8-0.5l1.5,0.3l0.7,1.4l-0.1,1.2l0.8,1.2l0.1,1.9l-4.5,0.5l-5.4,1.6l0.8,6.6l-4-2.3l-3.1,4.8
	l3.5,1.3l-4.7,3.8l-1.9-0.6l-2.2,2.2l-4-1.4l-5.5-5.5L592.7,283.3z"/>
<path id="path4407" inkscape:connector-curvature="0" class="st0" d="M580.5,262.6l4.4,0.5l3.1-2l1.8,1.8l5.1-2.4l2.8-0.3l1.1-3.3
	l-3.7-2.4l-1.3-3.8l7.1-3.8h4.5l5.2,0.9l4.1,2.3l-1.9,4.1l-2.2,9.6l2.9,2.3l1,2.1l-5.4,4.6l-5.9,3.3l-1.6,4.2l-3.1,2.7l-6.1,0.3
	l-3.4,1.3l-3.5-1.8l-1.8-5l0.2-5.2l2-3.8l-1.6-2.2l-3-1.6L580.5,262.6z"/>
<path id="path4409" inkscape:connector-curvature="0" class="st0" d="M563.9,221.1l4.7-1l2.5,2.5l1.3,4.1l2.4,0.6l1.8-5.4l2.8-1.7
	l2.1-2.4v8.9l1.1,2.5l-3.7,1.4l2,2.1l5.2-2.3l3.4,3l2.7-3.1l5.1,0.7l1.8-1.4l1-3.8l5.2,0.1l2.1-2l2.4,3.1l3.5-0.4l3.8,3.3l-2.1,0.8
	l1.6,2l0.6-1l1.9,1l0.8,1.2l-0.5,0.9l0.7,1l-0.5,2.8l-0.1,1.7l-1.6,2.1l0.1,1.2l-1.8,1.9l-1.9-0.5l-2.4,0.1l-1.2,2.5L601,247
	l-7.1,3.8l1.3,3.8l3.7,2.4l-1.1,3.3l-2.8,0.3l-5.1,2.4l-1.8-1.8l-3.1,2l-4.4-0.5l-2.1,1.6l0.9,4.5l-1.6,2.7h-2.2l-1.5-3.6l-3.5-0.2
	l0.4-1.8l2.8-1.6l-0.7-4.4l-4.1-0.1l0.6-2.3l1.1-2l-1-3.1l-7.4-6.5l-6.4-0.6l-1.7,2.5l-4.4,0.1l-4.4,0.4l3.3-2.8l-1.7-1.7v-3.1
	l3.4-2.4l1.1-2.1l3.7,0.8l3.3-0.4l2.8-1.8l-1.6-2.1l-3,0.6l0.7-3.5l-1-3l1.3-2.5l3,3.7l0.6-5.4L563.9,221.1z"/>
<path id="path4411" inkscape:connector-curvature="0" class="st0" d="M570,180.1l12.6-4.4l3.4,0.6l4.4,4.8l1,6.3l5,2.1l3.6,6.6
	l-2.5,3.6l4.3,4.6l0.5,1.7l5.3,3l2.2,4.6l2,3.5l2.4-2.7l3.6,2.2l-0.2,5.6l0.6,1l-0.2,1.1l0.6,0.6l-1.3,0.5l0.3,0.9L617,227l0.4,1.1
	l-0.5,0.9l0.5,1l-3.8-3.3l-3.5,0.4l-2.4-3.1l-2.1,2l-5.2-0.1l-1,3.8l-1.8,1.4l-5.1-0.7l-2.7,3.1l-3.4-3l-5.2,2.3l-2-2.1l3.7-1.4
	l-1.1-2.5v-8.9l-2.1,2.4l-2.8,1.7l-1.8,5.4l-2.4-0.6l-1.3-4.1l-2.5-2.5l-4.7,1l-0.7-4.4l3.3-1.3l1.3-5.4l-3.8-1.1l-3,0.7l-1.7-3.4
	l-3.3-0.7l-0.6,2.4l-2.5,1.1l-0.6-5.2l-1.7-1.6l-0.1-5.8l-6.9-2.7L570,180.1z"/>
<path id="path4413" inkscape:connector-curvature="0" class="st0" d="M694.3,302.9l3.5,4.3l4,1.5l3,4.9l2.4,2.3l1.8-1.1l1.2,4.8
	l2.5,4.2l1.8,5.3l3.5,2.1l12.4-0.1l5.6,1l4.6,4.1l0,1.8l3.4,1l4.9,0.1l3.9-2.6l4.3-1.5l1.4-2.7l5.3-1.6l9.9-1.1h4.6l3.7,0.4l4-1.8
	l0.2-4.2l-3.6-5.4l-1-4.4l3.6-3.8l0.4-2.6l2.8-1.8l1.4-5.6l-2.6-0.2l-0.8-3.4l-3-3.2l-5.6,0.4l-6.2-4.8l0.8-2.2l2-2l-3-4.8l0.4-19.7
	l-4,3l-4.6-0.4l-4.8-2.6l-3.8,3.2l-1.8,1l-1.6,1.4l-1.8-1.2l-4,0.2l-2.8,1.2l-3.6-0.8l-2.4-2.8l-3.6,0.6l-3-2.4l-3.8-1l-4.8-2.2
	l-4.2-1.8l-4-5l-1.4-5.2l-4.2-2.2l-3-1.5l-1.3,2.5l0.6,1.8l-0.7,1l0.8,1.4l-0.5,1.6l0.6,1.4l-0.9,0.5l-0.4,1.5l1.5,0.4l0.7,1.3
	l-0.3,1.9l-1.1,0.2l-1.4,0.8l-0.1,2.2h-2l-0.7,0.9l1.3,2.4l0.9,0.6l0.2,1.6l3.8,3.2l3.3,1.4l0.4,2.1l-2.4,2.4l-2.2,1.4l1.8,0.8
	l1,1.6h0.9l1.1,4.8l2.7,0.8L711,285l-0.3,1.2l-1-0.4l-2.9,0.5l-0.8-0.5l-2.9,1l-2.1-0.7l-0.8-1.4l-0.3,2.5l1.9,4.9l-0.6,1.2l1.3,2.1
	l-0.6,2.6l-3.8,1.2l-0.5,2.7h-1.9L694.3,302.9z"/>
<path id="path4415" inkscape:connector-curvature="0" class="st0" d="M771.7,260.7l3.2,0.5l3.6,3.4l12,2.7l5.8,1l5.6,1.4l3.4,1.4
	l1.6,2.4l5,1.6l4.6,3.2l18.6,5l8,0l2.6-3l3-0.4l2.5,1.5l1.5,3.4l4.6,4.2l0.4,1l-1.5,2.6l0.2,4l-1.5,1.4l0.1,1l3.3,2.7l2.3,2.7l5,0.2
	l1.9,0.8l2.2-0.6l2,1.8l2.1,4.5l2.4,0.4l1,1.2l-0.3,2.3l-3.1,0.8l0,2.3l-0.6,0.7l-1.6,0.2l-3.8-2.4l-2.4,0.5l-4.9,1.4l-3.5,4
	l-3.4,0.7l-3.5,0.1l-3.6,3.2l-3.4-0.2l-1.6-1.6l-2.8,1.3l-1.4,0l-1.8,2.1l-2.4,0.3l-1.3,2l-3.6,0.1l-1.8,0.8l-1.5-0.2l0.3-4.5
	l2.1-3.5l-1.6-0.8l-3.1,2.1l-3.4,1l-0.9,1.2l1.6,4.8l-2.5,1.2l-0.9,2.6l-2.5,0.4l-0.8-0.8l-0.2-1.5l-6.7-1.5l-1.5-0.2l-2.7-2
	l-6.9-2.4l-3.5,0.1l-3,1.2l-2.6,0l0.2-4.2l-3.6-5.4l-1-4.4l3.6-3.8l0.4-2.6l2.8-1.8l1.4-5.6l-2.6-0.2l-0.8-3.4l-3-3.2l-5.6,0.4
	l-6.2-4.8l0.8-2.2l2-2l-3-4.8L771.7,260.7z"/>
<path id="path4417" inkscape:connector-curvature="0" class="st0" d="M590.4,181.1l0.5-3.6l2.8-1.4l0.1-4.2l1.4-2.3l1-5.7l-4.9-1.1
	l-3.8-3.1v-3.5l6.2-4l2-6.9l3.3-3.1l0.8-4.2l-4.9-0.1l-5.1-3.7l1.7-2.4l-0.3-4.1l5.1-0.4l4.5-2.1l7.5-1.1l2.3-5l-0.4-2l-1.8-1.6
	l-1.2-0.5l-4.8,0.6l-4.6-1.2l-5.9,0l-2.4,1.4l-2.4,4.5l-1.7,0.2l-5.2-3.3l-4.7,1l-7.6-2.8l-1.7,0.2l-2.3,1.2l-1.2,0.1l-0.8-0.7
	l-1.5-3.5l-7.6-0.8l-2-1l-2.6,0.8l-0.7,1l-2.5,0.8l3.8,6.4l2.6,9.2l-1.6,3.4l-0.2,2.7l3.5,3.1l-0.7,3.2l1.2,5.7l-0.6,2.1l0.4,2.7
	l3.6,2.2l0,2.6l0.7,2.8l1.9,0.6l1.4,3.6l9.4,16.4l12.6-4.4l3.4,0.6L590.4,181.1z"/>
<path id="path4419" inkscape:connector-curvature="0" class="st0" d="M599.9,196.1l4.6,0.5l2.1,1.6l1.7-2.7l-5.1-2.8l-2.1-4.8
	l2.1-2.1h1.7l2.7-3.7h-3.4l-0.8-3.3l4.7-4.5l3.3-0.8l9.1-10.3l3.8-2l4.9,2.7l1.4,2.3l11.2,1l4.9-2.4l-2.7-6.4l-3.1-2.5l-0.5-1.4
	l2.1-4.1l-1.2-3.3l-5.5-0.9l-7.4-4.8l-1.5-0.3l-3.9-3.1l-2.1-3l-3.6-1.3l-0.6-1.1l-0.5-0.8l-4.3,0.5l-2.2-1l-0.4-2.2l-1.3-2.3
	l0.2-2.9l-7.5,1.1l-4.5,2.1l-5.1,0.4l0.3,4.1l-1.7,2.4l5.1,3.7l4.9,0.1l-0.8,4.2l-3.3,3.1l-2,6.9l-6.2,4v3.5l3.8,3.1l4.9,1.1l-1,5.7
	l-1.4,2.3l-0.1,4.2l-2.8,1.4l-0.5,3.6l1,6.3l5,2.1L599.9,196.1z"/>
<path id="path4421" inkscape:connector-curvature="0" class="st0" d="M646.6,164.7l4.6,5.9l9.3-1.1l3.7-1.5l1.3,0.1l5.4,4.6l5.4,0.5
	l2.8-1.4l3.9,1.4l-21.4,50.9l-0.9-1.6l-1.4-3.7l-1.4-0.6l-2.2,0.8l-1.1-0.2l-2.3-1.9l-2.3-0.1l-2.7-1.5l-1.5-2.3l-1-2.3l-1.4-1.6
	L641,209l-2.3-1.1l-1.4,0.4l-1.4-1l-0.1,1.5l-0.7,1l0.8,0.7l-1,2.3l-1.1,0.2v2.4l-1.2-0.6l-0.6-1l-1.9-1l-1.2-2.4l-3.5-2.3l-1.2,0.1
	l0.4,0.8l-0.6,1.9h1.2v1l-0.6,0.8l0.6,1.8l-0.8,0.8l-0.9-0.3l-1.1,0.6l-3.9,0.3l-0.9,0.5l-3.6-2.2l-2.4,2.7l-2-3.5l-2.2-4.6l-5.3-3
	l-0.5-1.7l-4.3-4.6l2.5-3.6l4.6,0.5l2.1,1.6l1.7-2.7l-5.1-2.8l-2.1-4.8l2.1-2.1h1.7l2.7-3.7h-3.4l-0.8-3.3l4.7-4.5l3.3-0.8l9.1-10.3
	l3.8-2l4.9,2.7l1.4,2.3l11.2,1L646.6,164.7z"/>
<path id="path4423" inkscape:connector-curvature="0" class="st0" d="M736.6,262.9l-0.1-14.5l5.5-5.1l1.4-4.1l0.3-4.2l2.7-0.3l2,1.6
	l3.5-1.8l-2.5-3l-0.8-4.9l3.7-1.6l2.4,0.7l2.5-1.3l4.8,1.6l1.1,1.6l5.4,0.6l2.1-4.8l-1.8-4.1l-2.8-0.3l-0.6,2.4h-3.3l-0.4-2.8
	l1.8-2.1l-0.3-3.5l-4-0.7l-0.8-6.4l-4-1l-1.2-5.9l-3,2.4l-1.8,0.3l-4.9-3.7l-2.7,1.1l-1.7,0.9l-8-1.9l-5.4-7.6l-4.9-3.9l-5.4,2
	l-5.4,0.6l-6.8-0.7l-3.1-3l-2.5-0.7l-3.4-5.3l-5.5-5l-5.7-0.9l-21.4,50.9l0.4,2.3l3.2,2.5l0.2,1.4l0.2,5l2,2.2l1.1,2.8l3.4,4.2
	l2,2.2l3.4-0.7l3.5,2.1l0.6-2l1.6-0.4l0.9-1.1l2-0.6l-0.4-1.2l0.7-2.9l1.1-2.5l1.4-0.1l2.3,2.3l3.1,0.9l3.7,2.5h1.5l1-1.2l1.6-0.8
	h1.7l0.8,1.2l7.2,3.7l1.4,5.2l4,5l9,4l3.8,1l3,2.4L736.6,262.9z"/>
<path id="path4425" inkscape:connector-curvature="0" class="st0" d="M848.8,279.9l-1.8-4.2l-3.4-2.6l0.2-4l-2.5-1.7l-0.7-2.8l2-0.6
	l0.3-1.7l0.3-1.5l-2.5-2l0.1-1.6l-2.1-0.6l0.3-1.7l-1.1-3.4l-8.4-11.3l-3.3-2.9l-1.2-3.9l0.8-2.8l-0.7-1l-2.6,0.1l-1.6-2.4l-2-1.7
	l1.3-2.7l-0.7-3.9l-3.8,0.2l-1.8-0.3l-1-1.8l-1.4-0.3l-1.5-2.9l-2.3-1.8l-2.8-0.1l-1.2-1.3l-2.6-0.1l-0.4,0.7l-1.9-0.5l-0.4-2
	l-1.9,0.7l-3.3,0.8l-0.6-2.3l-2.3,0.4l-2.5,1.3l-0.2-2.3l-7.1-2.5l-0.6,0.4l-0.2,2.4l-0.7,1.1l-2.3-2l-2.1,0.8l-2.1-0.3l-2.3-1.9
	l-1-2.1l-1.5-1.2l-1.2-3.6l-2-1.5l-6-0.5l-2.6,2.4l-2.4-0.1l1.2,5.9l4,1l0.8,6.4l4,0.7l0.3,3.5l-1.8,2.1l0.4,2.8h3.3l0.6-2.4
	l2.8,0.3l1.8,4.1l-2.1,4.8l-5.4-0.6l-1.1-1.6l-4.8-1.6l-2.5,1.3l-2.4-0.7l-3.7,1.6l0.8,4.9l2.5,3l-3.5,1.8l-2-1.6l-2.7,0.3l-0.3,4.2
	l-1.4,4.1l-5.5,5.1l0.1,14.5l2.4,2.8l3.6,0.8l2.8-1.2l4-0.2l1.8,1.2l1.6-1.3l1.8-1l3.8-3.2l4.8,2.6l4.6,0.4l4-3l3.2,0.5l3.6,3.4
	l12,2.7l5.8,1l5.6,1.4l3.4,1.4l1.6,2.4l5,1.6l4.6,3.2l18.6,5h8l2.6-3L848.8,279.9z"/>
</svg>
